<svg xmlns="http://www.w3.org/2000/svg" viewBox="0 0 360 88" role="img" aria-label="Krishiv">
  <defs>
    <linearGradient id="ks-frame" x1="10" y1="10" x2="70" y2="70" gradientUnits="userSpaceOnUse">
      <stop offset="0" stop-color="#FFB52A"/>
      <stop offset="0.55" stop-color="#F59E0B"/>
      <stop offset="1" stop-color="#B86A00"/>
    </linearGradient>
    <linearGradient id="ks-stroke" x1="18" y1="14" x2="54" y2="58" gradientUnits="userSpaceOnUse">
      <stop offset="0" stop-color="#FFB52A"/>
      <stop offset="1" stop-color="#F59E0B"/>
    </linearGradient>
    <linearGradient id="ks-spine" x1="24" y1="14" x2="32" y2="58" gradientUnits="userSpaceOnUse">
      <stop offset="0" stop-color="#FFCB47"/>
      <stop offset="1" stop-color="#D07A00"/>
    </linearGradient>
    <linearGradient id="ks-word" x1="96" y1="32" x2="220" y2="56" gradientUnits="userSpaceOnUse">
      <stop offset="0" stop-color="#F5F5F5"/>
      <stop offset="1" stop-color="#FFD18A"/>
    </linearGradient>
    <radialGradient id="ks-glow" cx="38" cy="38" r="28" gradientUnits="userSpaceOnUse">
      <stop offset="0" stop-color="#F59E0B" stop-opacity="0.18"/>
      <stop offset="1" stop-color="#F59E0B" stop-opacity="0"/>
    </radialGradient>
  </defs>

  <rect x="6" y="14" width="68" height="68" rx="16" fill="#101010"/>
  <rect x="6" y="14" width="68" height="68" rx="16" fill="url(#ks-glow)"/>
  <rect x="6.5" y="14.5" width="67" height="67" rx="15.5" fill="none" stroke="url(#ks-frame)" stroke-width="1" stroke-opacity="0.65"/>

  <g transform="translate(6 14)">
    <rect x="19" y="11" width="9" height="42" rx="2" fill="url(#ks-spine)"/>
    <rect x="20.5" y="15" width="6" height="9" rx="1.25" fill="#101010" fill-opacity="0.7"/>
    <rect x="20.5" y="27.5" width="6" height="9" rx="1.25" fill="#101010" fill-opacity="0.7"/>
    <rect x="20.5" y="40" width="6" height="9" rx="1.25" fill="#101010" fill-opacity="0.7"/>
    <path d="M28 32L48 14" fill="none" stroke="url(#ks-stroke)" stroke-width="7" stroke-linecap="round"/>
    <path d="M28 32L50 50" fill="none" stroke="url(#ks-stroke)" stroke-width="7" stroke-linecap="round"/>
    <circle cx="48" cy="14" r="3.25" fill="#FFB52A"/>
    <circle cx="50" cy="50" r="3.25" fill="#F59E0B"/>
    <circle cx="23.5" cy="32" r="2.75" fill="#FFCB47"/>
    <path d="M8 18h6M8 32h6M8 46h6" fill="none" stroke="#F59E0B" stroke-width="1.5" stroke-linecap="round" stroke-opacity="0.55"/>
  </g>

  <text x="92" y="48" fill="url(#ks-word)" font-family="Inter, ui-sans-serif, system-ui, -apple-system, BlinkMacSystemFont, Segoe UI, sans-serif" font-size="32" font-weight="800" letter-spacing="-0.5">Krishiv</text>
  <text x="94" y="70" fill="#A3A3A3" font-family="Inter, ui-sans-serif, system-ui, -apple-system, BlinkMacSystemFont, Segoe UI, sans-serif" font-size="11" font-weight="600" letter-spacing="0">Batch SQL · Streaming · Lakehouse</text>

  <g transform="translate(282 30)">
    <rect width="58" height="24" rx="12" fill="#101010" stroke="#2A2A2A"/>
    <circle cx="17" cy="12" r="3.5" fill="#F59E0B"/>
    <circle cx="29" cy="12" r="3.5" fill="#FFB52A"/>
    <circle cx="41" cy="12" r="3.5" fill="#FFCB47"/>
  </g>
</svg>
