<svg xmlns="http://www.w3.org/2000/svg" viewBox="0 0 960 260" role="img" aria-labelledby="title desc">
  <title id="title">Krishiv logo</title>
  <desc id="desc">Krishiv wordmark with a geometric K-shaped data-flow mark for a Rust-native hybrid compute framework.</desc>
  <defs>
    <linearGradient id="ring" x1="48" y1="48" x2="212" y2="212" gradientUnits="userSpaceOnUse">
      <stop offset="0" stop-color="#10B981"/>
      <stop offset="0.48" stop-color="#2563EB"/>
      <stop offset="1" stop-color="#7C3AED"/>
    </linearGradient>
    <linearGradient id="core" x1="88" y1="72" x2="174" y2="190" gradientUnits="userSpaceOnUse">
      <stop offset="0" stop-color="#E0F2FE"/>
      <stop offset="0.58" stop-color="#93C5FD"/>
      <stop offset="1" stop-color="#34D399"/>
    </linearGradient>
    <linearGradient id="word" x1="306" y1="86" x2="614" y2="176" gradientUnits="userSpaceOnUse">
      <stop offset="0" stop-color="#F8FAFC"/>
      <stop offset="0.64" stop-color="#DDE7F5"/>
      <stop offset="1" stop-color="#A7F3D0"/>
    </linearGradient>
    <filter id="soft-shadow" x="-20%" y="-20%" width="140%" height="140%" color-interpolation-filters="sRGB">
      <feDropShadow dx="0" dy="12" stdDeviation="14" flood-color="#020617" flood-opacity="0.24"/>
    </filter>
  </defs>

  <rect width="960" height="260" rx="36" fill="#0B1020"/>

  <g transform="translate(28 2)">
    <circle cx="128" cy="128" r="94" fill="none" stroke="url(#ring)" stroke-width="12" stroke-linecap="round"/>
    <path d="M62 128h38" fill="none" stroke="#38BDF8" stroke-width="12" stroke-linecap="round"/>
    <path d="M156 54v36" fill="none" stroke="#34D399" stroke-width="12" stroke-linecap="round"/>
    <path d="M190 180l-26-26" fill="none" stroke="#F59E0B" stroke-width="12" stroke-linecap="round"/>

    <g filter="url(#soft-shadow)">
      <path d="M82 68h34v120H82z" fill="url(#core)"/>
      <path d="M120 128l56-60h42l-66 68 70 52h-48l-54-42z" fill="#F8FAFC"/>
      <path d="M120 128l56-60h42l-66 68 70 52h-48l-54-42z" fill="#C4B5FD" opacity="0.18"/>
      <path d="M92 86h14v18H92zm0 34h14v18H92zm0 34h14v18H92z" fill="#0B1020" opacity="0.65"/>
    </g>

    <circle cx="62" cy="128" r="10" fill="#38BDF8"/>
    <circle cx="156" cy="54" r="10" fill="#34D399"/>
    <circle cx="190" cy="180" r="10" fill="#F59E0B"/>
  </g>

  <g transform="translate(300 0)">
    <text x="0" y="132" fill="url(#word)" font-family="Inter, ui-sans-serif, system-ui, -apple-system, BlinkMacSystemFont, Segoe UI, sans-serif" font-size="72" font-weight="760" letter-spacing="0">Krishiv</text>
    <text x="4" y="174" fill="#AAB7CF" font-family="Inter, ui-sans-serif, system-ui, -apple-system, BlinkMacSystemFont, Segoe UI, sans-serif" font-size="22" font-weight="520" letter-spacing="0">Unified runtime for queries, streams, and AI pipelines</text>

    <g transform="translate(416 92)">
      <rect x="0" y="0" width="152" height="34" rx="17" fill="#111827" stroke="#24324A"/>
      <circle cx="22" cy="17" r="6" fill="#38BDF8"/>
      <circle cx="52" cy="17" r="6" fill="#34D399"/>
      <circle cx="82" cy="17" r="6" fill="#F59E0B"/>
      <path d="M104 17h24" fill="none" stroke="#94A3B8" stroke-width="4" stroke-linecap="round"/>
    </g>
  </g>
</svg>
