<svg xmlns="http://www.w3.org/2000/svg" viewBox="0 0 960 260" role="img" aria-labelledby="title desc">
  <title id="title">Krishiv logo</title>
  <desc id="desc">Krishiv wordmark for a Rust-native batch SQL, streaming, and lakehouse compute framework.</desc>
  <defs>
    <linearGradient id="krishiv-logo-frame" x1="48" y1="48" x2="212" y2="212" gradientUnits="userSpaceOnUse">
      <stop stop-color="#F59E0B"/>
      <stop offset="0.52" stop-color="#38BDF8"/>
      <stop offset="1" stop-color="#6366F1"/>
    </linearGradient>
    <linearGradient id="krishiv-logo-spine" x1="88" y1="72" x2="174" y2="190" gradientUnits="userSpaceOnUse">
      <stop stop-color="#FBBF24"/>
      <stop offset="1" stop-color="#F59E0B"/>
    </linearGradient>
    <linearGradient id="krishiv-logo-word" x1="306" y1="86" x2="618" y2="176" gradientUnits="userSpaceOnUse">
      <stop stop-color="#F8FAFC"/>
      <stop offset="0.7" stop-color="#DDE7F5"/>
      <stop offset="1" stop-color="#38BDF8"/>
    </linearGradient>
  </defs>
  <rect width="960" height="260" rx="36" fill="#0B1020"/>
  <rect x="1.5" y="1.5" width="957" height="257" rx="34.5" fill="none" stroke="#2A3858" stroke-width="3" opacity="0.8"/>
  <g transform="translate(28 2)">
    <rect x="12" y="12" width="232" height="232" rx="56" fill="#0B1020"/>
    <rect x="14" y="14" width="228" height="228" rx="54" fill="none" stroke="url(#krishiv-logo-frame)" stroke-width="4" stroke-opacity="0.72"/>
    <path d="M116 128L196 60" fill="none" stroke="#DDF7FF" stroke-width="40" stroke-linecap="round"/>
    <path d="M116 128L204 196" fill="none" stroke="#C4B5FD" stroke-width="40" stroke-linecap="round"/>
    <rect x="64" y="44" width="56" height="168" rx="16" fill="url(#krishiv-logo-spine)"/>
    <rect x="80" y="64" width="24" height="28" rx="6" fill="#0B1020" opacity="0.66"/>
    <rect x="80" y="112" width="24" height="28" rx="6" fill="#0B1020" opacity="0.66"/>
    <rect x="80" y="160" width="24" height="28" rx="6" fill="#0B1020" opacity="0.66"/>
    <path d="M32 80h32M32 128h32M32 176h32" fill="none" stroke="#38BDF8" stroke-width="10" stroke-linecap="round" opacity="0.78"/>
    <circle cx="196" cy="60" r="16" fill="#38BDF8"/>
    <circle cx="204" cy="196" r="16" fill="#6366F1"/>
    <circle cx="128" cy="128" r="14" fill="#22C55E"/>
  </g>
  <g transform="translate(324 0)">
    <text x="0" y="126" fill="url(#krishiv-logo-word)" font-family="Inter, ui-sans-serif, system-ui, -apple-system, BlinkMacSystemFont, Segoe UI, sans-serif" font-size="74" font-weight="800" letter-spacing="0">Krishiv</text>
    <text x="4" y="174" fill="#A8B3C7" font-family="Inter, ui-sans-serif, system-ui, -apple-system, BlinkMacSystemFont, Segoe UI, sans-serif" font-size="23" font-weight="600" letter-spacing="0">Rust-native batch SQL, streaming, and lakehouse compute</text>
    <g transform="translate(432 90)">
      <rect width="154" height="38" rx="19" fill="#121A2E" stroke="#2A3858"/>
      <circle cx="28" cy="19" r="6" fill="#F59E0B"/>
      <circle cx="58" cy="19" r="6" fill="#38BDF8"/>
      <circle cx="88" cy="19" r="6" fill="#22C55E"/>
      <path d="M112 19h24" fill="none" stroke="#A8B3C7" stroke-width="4" stroke-linecap="round"/>
    </g>
  </g>
</svg>
