<svg xmlns="http://www.w3.org/2000/svg" viewBox="0 0 256 256" role="img" aria-labelledby="title desc">
  <title id="title">Krishiv mark</title>
  <desc id="desc">Geometric K mark built from columnar data blocks, streaming paths, and runtime nodes.</desc>
  <defs>
    <linearGradient id="krishiv-frame" x1="24" y1="24" x2="232" y2="232" gradientUnits="userSpaceOnUse">
      <stop stop-color="#F59E0B"/>
      <stop offset="0.52" stop-color="#38BDF8"/>
      <stop offset="1" stop-color="#6366F1"/>
    </linearGradient>
    <linearGradient id="krishiv-spine" x1="68" y1="48" x2="124" y2="208" gradientUnits="userSpaceOnUse">
      <stop stop-color="#FBBF24"/>
      <stop offset="1" stop-color="#F59E0B"/>
    </linearGradient>
    <linearGradient id="krishiv-upper" x1="120" y1="128" x2="204" y2="56" gradientUnits="userSpaceOnUse">
      <stop stop-color="#F5F7FB"/>
      <stop offset="1" stop-color="#38BDF8"/>
    </linearGradient>
    <linearGradient id="krishiv-lower" x1="120" y1="128" x2="212" y2="200" gradientUnits="userSpaceOnUse">
      <stop stop-color="#F5F7FB"/>
      <stop offset="1" stop-color="#6366F1"/>
    </linearGradient>
  </defs>
  <rect x="12" y="12" width="232" height="232" rx="56" fill="#0B1020"/>
  <rect x="14" y="14" width="228" height="228" rx="54" fill="none" stroke="url(#krishiv-frame)" stroke-width="4" stroke-opacity="0.72"/>
  <path d="M116 128L196 60" fill="none" stroke="url(#krishiv-upper)" stroke-width="40" stroke-linecap="round"/>
  <path d="M116 128L204 196" fill="none" stroke="url(#krishiv-lower)" stroke-width="40" stroke-linecap="round"/>
  <rect x="64" y="44" width="56" height="168" rx="16" fill="url(#krishiv-spine)"/>
  <rect x="80" y="64" width="24" height="28" rx="6" fill="#0B1020" opacity="0.66"/>
  <rect x="80" y="112" width="24" height="28" rx="6" fill="#0B1020" opacity="0.66"/>
  <rect x="80" y="160" width="24" height="28" rx="6" fill="#0B1020" opacity="0.66"/>
  <path d="M32 80h32M32 128h32M32 176h32" fill="none" stroke="#38BDF8" stroke-width="10" stroke-linecap="round" opacity="0.78"/>
  <circle cx="196" cy="60" r="16" fill="#38BDF8"/>
  <circle cx="204" cy="196" r="16" fill="#6366F1"/>
  <circle cx="128" cy="128" r="14" fill="#22C55E"/>
</svg>
